<?xml version="1.0" standalone="no"?>
<!DOCTYPE svg PUBLIC "-//W3C//DTD SVG 20010904//EN"
 "http://www.w3.org/TR/2001/REC-SVG-20010904/DTD/svg10.dtd">
<svg version="1.0" xmlns="http://www.w3.org/2000/svg"
 width="320.000000pt" height="320.000000pt" viewBox="0 0 320.000000 320.000000"
 preserveAspectRatio="xMidYMid meet">

<g transform="translate(0.000000,320.000000) scale(0.100000,-0.100000)"
fill="#000000" stroke="none">
<path d="M1151 1887 c-89 -31 -106 -170 -27 -222 32 -21 102 -23 141 -5 26 13
30 21 33 63 l3 47 -50 0 c-39 0 -51 -4 -51 -15 0 -10 11 -15 35 -15 31 0 35
-3 35 -25 0 -20 -7 -26 -40 -36 -85 -26 -146 42 -117 129 21 63 98 83 141 37
23 -24 46 -33 46 -17 0 21 -35 52 -68 62 -44 12 -38 12 -81 -3z"/>
<path d="M1540 1770 l0 -119 28 -1 c15 0 40 -1 57 -1 63 -2 100 98 57 151 -18
22 -56 30 -92 19 -11 -3 -16 6 -18 34 -2 24 -8 37 -18 37 -11 0 -14 -22 -14
-120z m120 11 c37 -70 -31 -151 -74 -89 -33 47 -13 108 34 108 19 0 33 -7 40
-19z"/>
<path d="M1740 1875 c0 -8 7 -15 15 -15 8 0 15 7 15 15 0 8 -7 15 -15 15 -8 0
-15 -7 -15 -15z"/>
<path d="M910 1795 c-25 -26 -75 -66 -111 -91 -58 -38 -66 -47 -61 -69 3 -19
8 -23 17 -15 9 8 14 6 18 -5 4 -9 13 -12 23 -8 14 5 15 3 5 -15 -6 -11 -11
-30 -11 -41 0 -12 -6 -21 -14 -21 -11 0 -13 -7 -7 -27 4 -16 6 -35 4 -45 -4
-16 -69 -48 -98 -48 -17 0 -35 30 -35 59 0 12 -4 21 -9 21 -6 0 -10 8 -10 18
-1 62 -11 117 -21 120 -6 2 -15 15 -20 28 -11 28 -28 29 -120 10 -63 -14 -163
-53 -207 -81 -19 -13 -20 -18 -10 -47 6 -18 12 -34 13 -36 4 -10 33 13 39 31
4 14 8 17 12 10 2 -7 12 -13 20 -13 10 0 13 -6 9 -16 -3 -9 -6 -22 -6 -30 0
-8 -6 -14 -14 -14 -18 0 -29 -26 -30 -69 -1 -30 -9 -41 -51 -73 -61 -46 -80
-48 -94 -7 -7 20 -16 29 -25 26 -16 -6 -30 42 -16 57 7 7 -5 61 -16 74 -1 2
-12 -1 -23 -8 -20 -10 -21 -18 -21 -195 l0 -185 115 0 116 0 51 41 c62 49 162
101 237 123 72 21 78 20 85 -9 14 -56 79 -56 206 -2 41 18 83 37 93 42 16 10
17 32 15 283 l-3 273 -45 -46z m0 -110 c9 6 9 3 1 -13 -6 -11 -11 -30 -11 -41
0 -12 -5 -21 -11 -21 -7 0 -18 -8 -26 -17 -13 -17 -14 -16 -10 4 3 12 0 24 -7
27 -7 3 -6 9 5 18 9 7 19 24 24 37 5 17 10 20 15 11 4 -7 13 -9 20 -5z m-365
-95 c7 0 12 -10 11 -25 0 -14 -6 -25 -13 -25 -6 0 -19 -3 -29 -7 -12 -4 -15
-2 -12 8 3 8 -2 19 -11 26 -14 11 -14 12 2 13 10 0 21 8 24 17 4 11 8 12 11 5
2 -7 10 -12 17 -12z m-125 -20 c0 -5 8 -6 17 -3 13 5 15 2 10 -11 -4 -10 -7
-24 -7 -33 0 -9 -6 -13 -15 -9 -8 3 -19 -2 -24 -12 -9 -15 -10 -14 -11 6 0 12
-4 22 -10 22 -5 0 -10 5 -10 10 0 6 7 10 15 10 8 0 15 7 15 15 0 8 5 15 10 15
6 0 10 -4 10 -10z"/>
<path d="M1385 1818 c-11 -6 -26 -18 -32 -26 -17 -21 -16 -92 1 -115 35 -46
126 -34 147 20 30 80 -45 160 -116 121z m81 -43 c27 -42 2 -105 -42 -105 -46
0 -70 61 -44 111 16 29 65 25 86 -6z"/>
<path d="M1855 1819 c-33 -19 -45 -41 -45 -80 0 -54 34 -91 83 -91 36 0 77 23
77 44 0 13 -27 9 -40 -7 -25 -30 -90 -8 -90 31 0 11 15 14 65 14 62 0 65 1 65
24 0 52 -69 91 -115 65z m73 -31 c26 -26 13 -38 -38 -38 -54 0 -55 1 -40 31
12 22 59 26 78 7z"/>
<path d="M2061 1821 c-7 -5 -22 -6 -32 -4 -18 5 -19 -1 -19 -81 0 -67 3 -86
14 -86 10 0 15 18 18 65 4 71 8 78 41 80 12 1 22 8 22 16 0 16 -25 22 -44 10z"/>
<path d="M2197 1823 c-4 -3 -20 -6 -37 -5 l-30 1 0 -85 c0 -68 3 -84 15 -84
12 0 15 13 15 56 0 66 13 94 43 94 37 0 47 -19 47 -87 0 -49 3 -63 15 -63 12
0 15 14 15 70 0 57 -4 74 -20 90 -20 20 -50 26 -63 13z"/>
<path d="M2370 1823 c-36 -14 -50 -37 -50 -80 0 -56 12 -78 50 -91 36 -13 86
1 100 28 16 30 12 96 -7 119 -19 22 -67 34 -93 24z m68 -35 c17 -17 15 -84 -4
-102 -19 -20 -58 -21 -74 -1 -6 8 -12 30 -12 50 0 20 6 42 12 50 15 18 61 20
78 3z"/>
<path d="M1740 1735 c0 -69 3 -85 15 -85 12 0 15 16 15 85 0 69 -3 85 -15 85
-12 0 -15 -16 -15 -85z"/>
<path d="M1080 1496 l0 -126 73 0 c84 0 117 14 130 53 7 23 5 34 -12 57 -12
17 -17 31 -11 35 15 9 12 71 -4 84 -7 6 -50 14 -95 18 l-81 6 0 -127z m135 70
c29 -21 3 -46 -46 -46 -37 0 -39 2 -39 30 0 27 3 30 33 30 18 0 42 -6 52 -14z
m19 -109 c15 -25 -16 -47 -66 -47 -37 0 -38 1 -38 36 l0 35 46 -3 c32 -2 50
-9 58 -21z"/>
<path d="M1550 1495 c0 -118 1 -125 20 -125 19 0 20 7 20 125 0 118 -1 125
-20 125 -19 0 -20 -7 -20 -125z"/>
<path d="M1644 1605 c-8 -20 4 -35 27 -35 14 0 19 7 19 25 0 18 -5 25 -20 25
-11 0 -23 -7 -26 -15z"/>
<path d="M2277 1614 c-4 -4 -7 -16 -7 -26 0 -14 6 -19 23 -16 14 2 22 10 22
23 0 20 -25 32 -38 19z"/>
<path d="M1349 1521 c-20 -20 -29 -39 -29 -61 0 -45 47 -90 94 -90 53 0 91 37
91 90 0 84 -95 121 -156 61z m105 -33 c26 -43 -31 -99 -70 -68 -17 15 -18 62
-2 78 17 17 58 11 72 -10z"/>
<path d="M1644 1537 c-3 -8 -4 -47 -2 -88 3 -68 5 -74 26 -77 21 -3 22 -1 22
87 0 85 -1 91 -20 91 -11 0 -23 -6 -26 -13z"/>
<path d="M1722 1542 c2 -4 18 -45 37 -91 44 -108 62 -108 108 -1 39 91 40 102
11 98 -17 -2 -27 -16 -42 -56 -10 -29 -22 -49 -26 -45 -4 4 -15 29 -25 56 -15
38 -22 47 -42 47 -14 0 -23 -4 -21 -8z"/>
<path d="M1947 1532 c-10 -10 -17 -22 -17 -25 0 -11 45 -8 57 4 13 13 56 2 50
-14 -2 -6 -23 -16 -47 -22 -54 -13 -74 -40 -57 -75 14 -28 54 -38 86 -21 13 7
22 8 26 1 3 -5 14 -10 24 -10 16 0 18 8 13 78 -3 54 -9 81 -20 90 -24 19 -96
15 -115 -6z m93 -95 c0 -19 -21 -37 -42 -37 -24 0 -35 29 -17 41 21 13 59 11
59 -4z"/>
<path d="M2130 1459 c0 -88 0 -89 25 -89 23 0 24 3 27 68 3 65 4 67 31 70 18
2 27 9 27 22 0 16 -8 18 -55 18 l-55 -1 0 -88z"/>
<path d="M2270 1459 c0 -88 1 -90 23 -87 21 3 22 8 25 91 l3 87 -26 0 c-25 0
-25 0 -25 -91z"/>
<path d="M2377 1532 c-10 -10 -17 -22 -17 -25 0 -11 45 -8 57 4 14 14 56 2 50
-14 -2 -7 -23 -16 -46 -21 -27 -6 -48 -18 -58 -33 -14 -21 -14 -25 1 -48 18
-27 53 -33 86 -15 13 7 21 7 25 0 3 -5 14 -10 24 -10 16 0 18 8 13 78 -3 54
-9 81 -20 90 -24 19 -96 15 -115 -6z m93 -95 c0 -19 -21 -37 -42 -37 -24 0
-35 29 -17 41 21 13 59 11 59 -4z"/>
<path d="M2560 1460 c0 -89 0 -90 25 -90 24 0 25 2 25 65 0 55 3 66 21 75 35
19 49 -3 49 -77 0 -61 1 -64 23 -61 20 3 22 9 25 66 4 81 -13 112 -61 112 -18
0 -38 -5 -44 -11 -8 -8 -13 -8 -17 0 -4 6 -16 11 -27 11 -17 0 -19 -8 -19 -90z"/>
<path d="M2795 1525 c-54 -53 -18 -155 55 -155 62 0 99 34 100 93 0 53 -35 87
-90 87 -30 0 -47 -6 -65 -25z m103 -44 c7 -47 -6 -71 -38 -71 -24 0 -33 6 -41
27 -16 44 3 75 44 71 25 -2 33 -8 35 -27z"/>
<path d="M1190 1290 c0 -38 -1 -39 -26 -30 -58 22 -113 -45 -93 -114 12 -42
32 -59 71 -58 87 2 78 -12 78 122 0 100 -3 120 -15 120 -11 0 -15 -11 -15 -40z
m-12 -62 c16 -16 16 -90 0 -106 -15 -15 -51 -15 -66 0 -16 16 -16 90 0 106 7
7 21 12 33 12 12 0 26 -5 33 -12z"/>
<path d="M1550 1322 c0 -4 20 -57 44 -117 59 -149 67 -149 126 -4 25 61 47
115 49 121 2 5 -4 8 -14 6 -11 -2 -28 -30 -46 -78 -49 -127 -49 -127 -59 -109
-5 9 -23 55 -41 102 -19 53 -36 87 -45 87 -8 0 -14 -4 -14 -8z"/>
<path d="M2930 1210 c0 -100 3 -120 15 -120 13 0 15 20 15 120 0 100 -2 120
-15 120 -12 0 -15 -20 -15 -120z"/>
<path d="M1310 1257 c-71 -36 -61 -152 15 -171 31 -8 95 18 95 38 0 20 -26 21
-34 1 -9 -24 -62 -19 -80 7 -9 12 -16 26 -16 30 0 5 32 8 71 8 l71 0 -7 28
c-13 54 -69 83 -115 59z m68 -29 c25 -25 13 -38 -33 -38 -30 0 -45 4 -45 13 0
19 21 37 45 37 12 0 26 -5 33 -12z"/>
<path d="M1824 1260 c-48 -19 -67 -81 -43 -134 13 -28 68 -51 99 -41 23 7 50
32 50 46 0 14 -26 11 -40 -6 -17 -20 -53 -19 -73 3 -31 34 -21 42 53 42 39 0
70 2 70 5 0 25 -34 77 -55 85 -30 12 -33 12 -61 0z m64 -32 c26 -26 13 -38
-38 -38 -52 0 -60 8 -34 34 18 19 55 21 72 4z"/>
<path d="M2030 1260 c-8 -5 -23 -7 -32 -4 -16 5 -18 -3 -18 -80 0 -51 4 -86
10 -86 6 0 10 24 10 53 0 66 21 99 58 95 26 -3 27 -5 30 -75 2 -56 6 -73 17
-73 12 0 15 16 15 74 0 66 -3 77 -22 90 -26 18 -46 20 -68 6z"/>
<path d="M2214 1260 c-78 -32 -66 -157 16 -175 38 -8 89 18 90 48 0 12 -21 8
-36 -8 -21 -20 -57 -19 -77 3 -31 34 -21 42 54 42 l71 0 -7 28 c-12 52 -65 81
-111 62z m64 -32 c26 -26 13 -38 -38 -38 -54 0 -59 4 -33 32 18 21 53 24 71 6z"/>
<path d="M2774 1256 c-36 -16 -44 -32 -44 -86 0 -55 28 -85 78 -85 38 0 82 25
82 47 0 13 -27 9 -40 -7 -18 -22 -67 -19 -80 4 -19 36 -12 41 55 41 57 0 65 2
65 19 0 33 -11 51 -41 66 -34 18 -36 18 -75 1z m74 -28 c26 -26 13 -38 -38
-38 -51 0 -64 12 -38 38 15 15 61 15 76 0z"/>
<path d="M3043 1255 c-18 -8 -33 -21 -33 -30 0 -19 26 -20 34 0 7 20 60 19 76
0 17 -20 10 -26 -47 -36 -73 -14 -97 -63 -47 -95 20 -14 32 -15 60 -6 18 5 44
8 55 5 21 -6 21 -3 17 70 -2 42 -8 81 -13 86 -18 18 -69 21 -102 6z m81 -107
c-9 -29 -22 -38 -56 -38 -30 0 -41 11 -32 34 6 15 27 22 72 25 20 1 22 -2 16
-21z"/>
<path d="M2360 1251 c0 -6 23 -11 51 -13 l51 -3 -56 -62 c-31 -33 -56 -66 -56
-72 0 -7 29 -11 80 -11 47 0 80 4 80 10 0 6 -25 10 -55 10 -30 0 -55 4 -55 8
0 4 23 33 50 64 28 31 50 61 50 67 0 7 -26 11 -70 11 -38 0 -70 -4 -70 -9z"/>
<path d="M2540 1192 c0 -83 13 -105 61 -104 19 1 46 2 62 2 l27 1 0 84 c0 69
-3 85 -15 85 -12 0 -15 -13 -15 -59 0 -66 -15 -91 -55 -91 -29 0 -35 16 -35
91 0 46 -3 59 -15 59 -12 0 -15 -14 -15 -68z"/>
</g>
</svg>
